<?xml version="1.0" encoding="UTF-8"?>
<svg viewBox="-4 2 48 48" xmlns="http://www.w3.org/2000/svg" xmlns:xlink="http://www.w3.org/1999/xlink">
    <path fill="#ff0000" stroke="none" d="M 28 26 C 28 21.581722 24.418278 18 20 18 C 15.581722 18 12 21.581722 12 26 C 12 30.418278 15.581722 34 20 34 C 24.418278 34 28 30.418278 28 26 Z"/>
    <path fill="#1a57ff" stroke="none" d="M 20.111328 49.5 L 20.111328 45.998047 C 20.074188 45.998226 20.037188 46 20 46 C 8.954362 46 0 37.045639 0 26 C -0 20.389647 2.31037 15.319458 6.03125 11.6875 L 10.273438 15.929688 C 7.638605 18.475418 6 22.04689 6 26 C 6 33.731949 12.268052 40 20 40 C 20.03726 40 20.074121 39.998337 20.111328 39.998047 L 20.111328 36.5 L 27.888672 42.759766 L 20.111328 49.5 Z M 33.96875 40.3125 L 29.726563 36.070313 C 32.361397 33.524574 34 29.95311 34 26 C 34 18.268051 27.731949 12 20 12 C 19.96274 12 19.925879 12.001663 19.888672 12.001953 L 19.888672 15.5 L 12.111328 8.759766 L 19.888672 2.5 L 19.888672 6.001953 C 19.925812 6.001774 19.962812 6 20 6 C 31.045637 6 40 14.954361 40 26 C 40 31.610353 37.689636 36.680534 33.96875 40.3125 Z"/>
</svg>
